<?xml version="1.0" encoding="utf-8"?>
<!-- Generator: Adobe Illustrator 22.0.1, SVG Export Plug-In . SVG Version: 6.00 Build 0)  -->
<svg version="1.1" id="图层_1" xmlns="http://www.w3.org/2000/svg" xmlns:xlink="http://www.w3.org/1999/xlink" x="0px" y="0px"
	 viewBox="0 0 250 205" style="enable-background:new 0 0 250 205;" xml:space="preserve">
<style type="text/css">
	.st0{fill:#FFFFFF;}
	.st1{fill:#DB3C14;}
	.st2{fill:#231815;}
</style>
<rect x="73.2" y="6" class="st0" width="104.4" height="104.4"/>
<title>资源 1</title>
<g id="图层_2_1_">
	<g id="图层_1-2">
		<rect x="130.3" y="42.6" class="st1" width="5.3" height="5.3"/>
		<polygon class="st1" points="98.3,58.6 98.3,48 114.3,48 114.3,42.6 98.3,42.6 98.3,37.3 114.3,37.3 114.3,32 98.3,32 98.3,26.7 
			146.3,26.7 146.3,32 130.3,32 130.3,37.3 146.3,37.3 146.3,53.3 114.3,53.3 114.3,58.6 151.6,58.6 151.6,55.2 151.6,53.3 
			151.6,37.3 151.6,35.8 151.6,21.3 93,21.3 93,58.6 		"/>
		<rect x="98.3" y="64" class="st1" width="16" height="5.3"/>
		<path class="st1" d="M66.4,0v117.3h117.3V0H66.4z M93,101.3H82.4V90.6H93V101.3z M167.6,64h-16v5.3h16v32H157V74.6h-5.3v26.6h-32
			V90.6h10.6v5.3h5.3V64H125v5.3h5.3v5.3h-16V80h16v5.3h-16v16h-16v-16h-16V80h16v-5.3h-16v-5.3h5.3V64h-5.3V16h85.3V64z"/>
		<path class="st2" d="M0,145.8h56.8V199c0,3.4-1.8,5.2-5.4,5.2H0V145.8z M9.3,153.5V197h36.5c1.4,0.3,2-0.3,1.8-2.1v-41.4H9.3z
			 M11.6,164.9v-7.5h33.6v7.5H31.6v5.9H45v7.2H31.6v8.7h4.6c0.7,0.2,1-0.3,1-1.3v-4.1H45v7.7c0.2,3.8-1.5,5.5-4.9,5.2H11.6v-7.4
			h11.3V178H11.6v-7.2h11.3v-5.9L11.6,164.9z"/>
		<path class="st2" d="M63.3,147.9h10.3v-2.3H83v2.3h11v7.6H63.3V147.9z M63.3,170.2v-7.4h1.8l-1.5-5.8h10.1l1.8,5.8h5.3l3.1-5.8
			h9.6l-2.3,6.1h2.5v7.1L63.3,170.2z M82.8,204.2h-8.4v-21.8H63.3V175h11.2v-3.3h8.4v3.3h10.7v7.4H82.8V204.2z M73.2,184.1
			l-0.5,16.2c-0.2,2.4-2.1,3.6-5.6,3.8H64v-6.6c1,0.2,1.5-0.4,1.5-1.8l0.3-11.7h7.4V184.1z M96,148.1h15.5c1.4,0.2,1.9-0.7,1.8-2.5
			h7.9v4.6c0.3,4.1-1.4,5.8-5.3,5.3h-11.4v5.1h17v7.1h-2.1v36h-9.1v-36h-5.8v29.9c-0.2,4.2-2.5,6.4-7.1,6.6h-7.1
			c-3.7-0.2-5.7-1.9-5.8-5.3l-0.3-15h7.1l0.2,9.6c0.2,2.1,0.8,3,2.1,3h1c1,0.2,1.5-0.4,1.5-1.8L96,148.1z"/>
		<path class="st2" d="M128.2,166.1v-7.6h1.8c0.7-0.2,1.3-1.4,2.1-3.6l2.1-8.9h8.4l-1.9,9.1c-0.3,1-0.5,2-0.5,3V204H132v-38h-3.8
			V166.1z M153.1,148.6v22.6c0.1,1.7-0.6,3.4-1.8,4.6l-0.5,0.8c0,0.5,0.2,0.9,0.5,1.3c1.1,1,1.7,2.3,1.8,3.8v11.7
			c0.8,2.4,3.6,3.8,8.4,4.3h24.1v6.6h-27.9c-1.3-0.1-2.5-0.5-3.5-1.3c-0.5-0.4-1.1-0.6-1.8-0.8c-0.5,0-0.9,0.2-1.3,0.5
			c-1.1,0.7-2.3,1.2-3.6,1.5h-5.1v-6.6h1.4c0.8,0,1.4-0.8,1.5-2.3v-13.2c-0.2-1-0.6-1.6-1.3-1.8h-1v-7.6h1.3c0.6-0.1,1.1-0.6,1-1.3
			v-15.7H143v-7.1H153.1z M155.6,148.6h9.1v-2.5h8.6v2.3h11.2v9.9h1.5v6.8h-1.5v3.3c0,4.6-1.8,6.8-5.3,6.6h-5.5v2.5h11.7v6.4h-11.7
			v3h11.7v6.3h-11.7v2.5H165v-2.5h-9.4v-6.3h9.4v-3h-9.4v-6.4h9.4v-2.7h-9.4v-6.9h9.1v-2.5h-9.4v-7.2h9.6v-2.8h-9.4L155.6,148.6z
			 M173.4,165.3v2.5h2.5c0.5,0.2,0.8-0.2,0.8-1v-1.5H173.4z M173.6,158.2h3v-3h-3V158.2z"/>
		<path class="st2" d="M195.2,147.3H218v-1.8h8.6v1.8h22.8v6.9h-46.2v42.1c0.2,5.4-1.7,8-5.6,7.9H193v-6.9h0.8
			c0.6,0.1,1.2-0.3,1.3-0.9c0-0.1,0-0.2,0-0.3L195.2,147.3z M205.1,157.4h17.3v-1.8h8.6v1.8h17.7v8.9h1.3v6.6h-1.3v2.5
			c0.2,4.6-2.1,6.7-6.8,6.3h-11.2v15.5c0.3,4.9-1.6,7.2-5.8,6.9h-5.3v-6.6h1.5c0.8,0,1.3-0.5,1.3-1.5v-14.2h-17.3v-6.3h17.3v-2.8
			h-17v-6.3h17v-2.3h-17.3V157.4z M210.4,204.1h-5.1v-6.3h2.3c0.9,0.2,1.8-0.2,2.3-1l1.3-2.5h8.9l-3.3,6.8
			C216.1,203.1,214,204.1,210.4,204.1L210.4,204.1z M208.7,189.7l-2.5-5.6h8.1l0.3,0.8c0.2,0.5,0.7,0.7,1.5,0.5h4.1v6.8h-6.8
			C211.2,192.5,209.7,191.7,208.7,189.7L208.7,189.7z M231,164v2.3h9.6V164H231z M240.4,174.2v-1.5H231v2.8h7.9
			C239.9,175.5,240.4,175,240.4,174.2L240.4,174.2z M233.3,191.9v-6.6h5.8c0.8,0.2,1.4,0,1.5-0.5l0.3-0.8h8.4l-1,3.8
			c-0.5,3.2-2.7,4.6-6.6,4.1H233.3z M236,200.8l-2.3-6.6h8.6l1,1.8c0.5,1.2,1.1,1.7,1.8,1.5h4.6v6.6h-6.6
			C238.9,204.3,236.6,203.2,236,200.8L236,200.8z"/>
	</g>
</g>
</svg>
